<svg width="120" height="120" viewBox="0 0 120 120" fill="none" xmlns="http://www.w3.org/2000/svg">
<g clip-path="url(#clip0_3211_241785)">
<g clip-path="url(#clip1_3211_241785)">
<g clip-path="url(#clip2_3211_241785)">
<path d="M30.3308 99.7755C28.4193 100.288 26.6126 100.017 24.9108 98.9631C23.209 97.9093 22.0857 96.3659 21.5409 94.3327L2.79325 24.3655C2.24847 22.3323 2.44954 20.434 3.39646 18.6705C4.34338 16.907 5.77259 15.7692 7.68409 15.257L43.1941 5.74211C45.1056 5.22992 46.9122 5.50072 48.614 6.5545C50.3158 7.60828 51.4391 9.15174 51.9839 11.1849L70.7316 81.1521C71.2764 83.1853 71.0753 85.0836 70.1284 86.8471C69.1815 88.6106 67.7522 89.7484 65.8407 90.2606L30.3308 99.7755ZM24.0646 81.0477L27.2168 92.8119C27.2998 93.1218 27.4972 93.373 27.809 93.5655C28.1204 93.7589 28.4218 93.8165 28.7131 93.7385L64.2231 84.2236C64.5145 84.1455 64.7467 83.9449 64.9196 83.6218C65.0934 83.2991 65.1388 82.9829 65.0557 82.673L61.9035 70.9088L24.0646 81.0477ZM45.6801 86.04C46.6065 85.7917 47.3031 85.233 47.7698 84.3639C48.236 83.4956 48.337 82.5684 48.0728 81.5823C47.8088 80.597 47.2578 79.8448 46.4199 79.326C45.5811 78.8066 44.6985 78.671 43.7721 78.9193C42.8457 79.1675 42.1491 79.7262 41.6824 80.5954C41.2162 81.4637 41.1151 82.3905 41.3791 83.3759C41.6433 84.362 42.1944 85.1144 43.0323 85.6333C43.8711 86.1526 44.7537 86.2882 45.6801 86.04ZM22.4469 75.0107L60.2859 64.8718L48.9418 22.535L11.1028 32.6739L22.4469 75.0107ZM9.48523 26.6369L47.3242 16.498L46.3081 12.7057C46.225 12.3958 46.0276 12.1446 45.7158 11.9521C45.4044 11.7587 45.1031 11.7011 44.8117 11.7791L9.30171 21.294C9.01035 21.3721 8.77818 21.5727 8.60521 21.8958C8.43143 22.2185 8.38606 22.5347 8.4691 22.8446L9.48523 26.6369Z" fill="white"/>
</g>
</g>
</g>
<defs>
<clipPath id="clip0_3211_241785">
<rect width="120" height="120" fill="white"/>
</clipPath>
<clipPath id="clip1_3211_241785">
<rect width="94.0171" height="100" fill="white" transform="translate(-21.5854 16.6289) rotate(-15)"/>
</clipPath>
<clipPath id="clip2_3211_241785">
<rect width="94.0171" height="100" fill="white" transform="translate(-21.5854 16.6289) rotate(-15)"/>
</clipPath>
</defs>
</svg>
