<svg width="120" height="120" viewBox="0 0 120 120" fill="none" xmlns="http://www.w3.org/2000/svg">
<g clip-path="url(#clip0_3211_241810)">
<g clip-path="url(#clip1_3211_241810)">
<path d="M29.781 75.677C24.1101 76.6769 18.9255 75.5595 14.2272 72.3248C9.52894 69.0909 6.67986 64.6384 5.67994 58.9676C4.79494 53.9485 5.615 49.2013 8.14014 44.7261C10.6652 40.2502 14.3581 37.2149 19.2189 35.6202C19.4525 29.2545 21.6524 23.6946 25.8186 18.9406C29.9842 14.1867 35.2101 11.2555 41.4965 10.147C48.9195 8.83816 55.6771 10.3167 61.7695 14.5826C67.8618 18.8485 71.5625 24.6929 72.8713 32.1159L73.2331 34.1676L74.4959 33.945C78.8795 33.5189 82.7923 34.6219 86.2342 37.2538C89.6761 39.885 91.7782 43.3627 92.5407 47.687C93.3477 52.2636 92.4404 56.4239 89.8187 60.168C87.1971 63.912 83.598 66.1876 79.0214 66.9946L29.781 75.677ZM28.6957 69.5219L77.9361 60.8395C80.8084 60.333 83.0614 58.9133 84.695 56.5803C86.3286 54.2473 86.8921 51.6446 86.3856 48.7723C85.8792 45.8999 84.4594 43.6469 82.1264 42.0133C79.7934 40.3798 77.1908 39.8162 74.3184 40.3227L68.1633 41.408L66.7163 33.2012C65.7154 27.5249 62.8618 23.0391 58.1556 19.7438C53.4494 16.4484 48.2581 15.3012 42.5818 16.3021C36.9055 17.303 32.4196 20.1565 29.1243 24.8628C25.829 29.569 24.6817 34.7603 25.6826 40.4366L23.6309 40.7983C19.6643 41.4978 16.5263 43.4967 14.2167 46.795C11.9072 50.0934 11.1021 53.7259 11.8015 57.6925C12.5009 61.6591 14.4998 64.7972 17.7982 67.1067C21.0966 69.4163 24.7291 70.2213 28.6957 69.5219Z" fill="white"/>
</g>
</g>
<defs>
<clipPath id="clip0_3211_241810">
<rect width="120" height="120" fill="white"/>
</clipPath>
<clipPath id="clip1_3211_241810">
<rect width="100" height="100" fill="white" transform="translate(-11 0.365234) rotate(-10)"/>
</clipPath>
</defs>
</svg>
