<svg width="120" height="120" viewBox="0 0 120 120" fill="none" xmlns="http://www.w3.org/2000/svg">
<path d="M30.3078 51L39.0325 42.2753C39.8196 41.4874 40.2219 40.5657 40.2396 39.5104C40.2563 38.4552 39.854 37.5168 39.0325 36.6953C38.211 35.8747 37.2678 35.4644 36.2028 35.4644C35.1369 35.4644 34.1932 35.8747 33.3718 36.6953L22.4169 47.6502C21.9219 48.146 21.5725 48.6688 21.3687 49.2185C21.1649 49.7682 21.0629 50.3621 21.0629 51C21.0629 51.6379 21.1649 52.2318 21.3687 52.7815C21.5725 53.3312 21.9219 53.854 22.4169 54.3499L33.4234 65.355C34.2104 66.1421 35.1453 66.5444 36.2279 66.5621C37.3106 66.5788 38.2626 66.1765 39.0841 65.355C39.9047 64.5335 40.315 63.6035 40.315 62.565C40.315 61.5274 39.9047 60.5978 39.0841 59.7763L30.3078 51ZM67.6922 51L58.9159 59.7763C58.1288 60.5634 57.7269 61.4846 57.7101 62.5399C57.6934 63.5951 58.0953 64.5335 58.9159 65.355C59.7374 66.1765 60.681 66.5872 61.7469 66.5872C62.8119 66.5872 63.7551 66.1765 64.5766 65.355L75.5831 54.3499C76.0781 53.854 76.4275 53.3312 76.6313 52.7815C76.8352 52.2318 76.9371 51.6379 76.9371 51C76.9371 50.3621 76.8352 49.7682 76.6313 49.2185C76.4275 48.6688 76.0781 48.146 75.5831 47.6502L64.5766 36.645C64.1831 36.2515 63.7402 35.9563 63.2478 35.7596C62.7563 35.5628 62.2644 35.4644 61.7721 35.4644C61.2797 35.4644 60.779 35.5628 60.2699 35.7596C59.7616 35.9563 59.3103 36.2515 58.9159 36.645C58.0953 37.4665 57.685 38.3965 57.685 39.435C57.685 40.4726 58.0953 41.4022 58.9159 42.2237L67.6922 51ZM13.5704 96C10.896 96 8.63235 95.0735 6.77941 93.2206C4.92647 91.3677 4 89.104 4 86.4296V15.5704C4 12.896 4.92647 10.6324 6.77941 8.77941C8.63235 6.92647 10.896 6 13.5704 6H84.4296C87.104 6 89.3677 6.92647 91.2206 8.77941C93.0735 10.6324 94 12.896 94 15.5704V86.4296C94 89.104 93.0735 91.3677 91.2206 93.2206C89.3677 95.0735 87.104 96 84.4296 96H13.5704ZM13.5704 88.0588H84.4296C84.8372 88.0588 85.2104 87.889 85.5493 87.5493C85.889 87.2104 86.0588 86.8372 86.0588 86.4296V15.5704C86.0588 15.1628 85.889 14.7896 85.5493 14.4507C85.2104 14.111 84.8372 13.9412 84.4296 13.9412H13.5704C13.1628 13.9412 12.7896 14.111 12.4507 14.4507C12.111 14.7896 11.9412 15.1628 11.9412 15.5704V86.4296C11.9412 86.8372 12.111 87.2104 12.4507 87.5493C12.7896 87.889 13.1628 88.0588 13.5704 88.0588Z" fill="white"/>
</svg>
