<svg width="240" height="240" viewBox="0 0 240 240" fill="none" xmlns="http://www.w3.org/2000/svg">
<g clip-path="url(#clip0_3211_241805)">
<g clip-path="url(#clip1_3211_241805)">
<path d="M60.7178 199.892C48.2419 202.091 36.8358 199.633 26.4994 192.517C16.1633 185.402 9.89531 175.607 7.69547 163.131C5.74847 152.089 7.55261 141.645 13.1079 131.8C18.663 121.953 26.7874 115.275 37.4812 111.767C37.995 97.7621 42.8348 85.5304 52.0005 75.0716C61.1648 64.613 72.6619 58.1644 86.4919 55.7258C102.822 52.8463 117.689 56.099 131.092 65.484C144.496 74.869 152.637 87.7268 155.517 104.057L156.312 108.571L159.091 108.081C168.735 107.144 177.343 109.57 184.915 115.361C192.487 121.149 197.112 128.8 198.789 138.314C200.564 148.382 198.568 157.535 192.801 165.772C187.033 174.009 179.115 179.015 169.047 180.79L60.7178 199.892ZM58.3301 186.351L166.659 167.249C172.978 166.135 177.935 163.012 181.529 157.879C185.122 152.746 186.362 147.02 185.248 140.701C184.134 134.382 181.01 129.426 175.878 125.832C170.745 122.238 165.019 120.998 158.7 122.112L145.159 124.5L141.975 106.445C139.773 93.9572 133.496 84.0883 123.142 76.8386C112.788 69.5889 101.367 67.065 88.8795 69.2669C76.3916 71.4689 66.5228 77.7467 59.273 88.1004C52.0233 98.4541 49.4994 109.875 51.7014 122.363L47.1877 123.159C38.4612 124.697 31.5574 129.095 26.4764 136.351C21.3954 143.608 19.6242 151.599 21.163 160.326C22.7017 169.052 27.0993 175.956 34.3557 181.037C41.6121 186.118 49.6036 187.889 58.3301 186.351Z" fill="white"/>
</g>
</g>
<defs>
<clipPath id="clip0_3211_241805">
<rect width="240" height="240" fill="white"/>
</clipPath>
<clipPath id="clip1_3211_241805">
<rect width="220" height="220" fill="white" transform="translate(-29 34.2031) rotate(-10)"/>
</clipPath>
</defs>
</svg>
