<svg width="240" height="240" viewBox="0 0 240 240" fill="none" xmlns="http://www.w3.org/2000/svg">
<g clip-path="url(#clip0_3211_241829)">
<path d="M62.5233 123L78.6155 106.908C80.0672 105.454 80.8093 103.755 80.8419 101.808C80.8728 99.8617 80.1307 98.1309 78.6155 96.6158C77.1003 95.1022 75.3606 94.3455 73.3963 94.3455C71.4303 94.3455 69.6897 95.1022 68.1746 96.6158L47.969 116.821C47.056 117.736 46.4115 118.7 46.0356 119.714C45.6596 120.728 45.4717 121.823 45.4717 123C45.4717 124.177 45.6596 125.272 46.0356 126.286C46.4115 127.3 47.056 128.264 47.969 129.179L68.2698 149.477C69.7215 150.929 71.4458 151.671 73.4426 151.703C75.4395 151.734 77.1955 150.992 78.7107 149.477C80.2242 147.962 80.981 146.247 80.981 144.331C80.981 142.417 80.2242 140.703 78.7107 139.187L62.5233 123ZM131.477 123L115.289 139.187C113.838 140.639 113.096 142.338 113.065 144.285C113.034 146.231 113.776 147.962 115.289 149.477C116.804 150.992 118.545 151.75 120.511 151.75C122.475 151.75 124.215 150.992 125.73 149.477L146.031 129.179C146.944 128.264 147.589 127.3 147.964 126.286C148.34 125.272 148.528 124.177 148.528 123C148.528 121.823 148.34 120.728 147.964 119.714C147.589 118.7 146.944 117.736 146.031 116.821L125.73 96.523C125.004 95.7972 124.187 95.2528 123.279 94.8898C122.373 94.5269 121.465 94.3455 120.557 94.3455C119.649 94.3455 118.726 94.5269 117.787 94.8898C116.849 95.2528 116.017 95.7972 115.289 96.523C113.776 98.0382 113.019 99.7535 113.019 101.669C113.019 103.583 113.776 105.297 115.289 106.813L131.477 123ZM31.6521 206C26.7193 206 22.5441 204.291 19.1265 200.874C15.7088 197.456 14 193.281 14 188.348V57.6521C14 52.7193 15.7088 48.5441 19.1265 45.1265C22.5441 41.7088 26.7193 40 31.6521 40H162.348C167.281 40 171.456 41.7088 174.874 45.1265C178.291 48.5441 180 52.7193 180 57.6521V188.348C180 193.281 178.291 197.456 174.874 200.874C171.456 204.291 167.281 206 162.348 206H31.6521ZM31.6521 191.353H162.348C163.1 191.353 163.788 191.04 164.413 190.413C165.04 189.788 165.353 189.1 165.353 188.348V57.6521C165.353 56.9003 165.04 56.2118 164.413 55.5869C163.788 54.9603 163.1 54.6471 162.348 54.6471H31.6521C30.9003 54.6471 30.2119 54.9603 29.5869 55.5869C28.9603 56.2118 28.6471 56.9003 28.6471 57.6521V188.348C28.6471 189.1 28.9603 189.788 29.5869 190.413C30.2119 191.04 30.9003 191.353 31.6521 191.353Z" fill="white"/>
</g>
<defs>
<clipPath id="clip0_3211_241829">
<rect width="240" height="240" fill="white"/>
</clipPath>
</defs>
</svg>
