<svg width="240" height="240" viewBox="0 0 240 240" fill="none" xmlns="http://www.w3.org/2000/svg">
<g clip-path="url(#clip0_3211_241790)">
<g clip-path="url(#clip1_3211_241790)">
<path d="M120.596 228.396C116.089 229.603 111.787 229.484 107.688 228.036C103.589 226.587 100.332 224.119 97.9177 220.632L94.6781 221.5C90.0855 222.731 85.6856 222.132 81.4784 219.703C77.2712 217.274 74.5522 213.763 73.3217 209.17L63.4506 172.331C50.2808 168.5 38.8993 161.683 29.3062 151.88C19.7125 142.074 13.151 130.586 9.62171 117.414C3.9592 96.2814 6.50801 76.3964 17.2681 57.7593C28.0283 39.1222 43.9747 26.9724 65.1075 21.3099C86.2403 15.6474 106.125 18.1962 124.762 28.9564C143.399 39.7165 155.549 55.663 161.212 76.7957C164.803 90.1974 164.88 103.485 161.443 116.657C158.006 129.83 151.543 141.367 142.053 151.269L151.924 188.109C153.154 192.701 152.555 197.101 150.126 201.308C147.697 205.516 144.186 208.235 139.594 209.465L136.354 210.333C136.007 214.56 134.42 218.326 131.595 221.631C128.769 224.933 125.103 227.188 120.596 228.396ZM90.165 204.657L135.081 192.622L132.257 182.084L87.3413 194.119L90.165 204.657ZM84.68 184.187L129.596 172.152L126.679 161.268L81.7637 173.303L84.68 184.187ZM75.0048 157.061L93.0131 152.236L84.2531 119.543L59.7209 105.377C58.0413 104.409 56.9456 103.041 56.4336 101.272C55.9217 99.504 56.1767 97.7348 57.1988 95.9645C58.2208 94.1943 59.603 93.0758 61.3453 92.6089C63.0877 92.1421 64.844 92.4197 66.6142 93.4417L87.6966 105.614L99.8685 84.5312C100.839 82.8512 102.208 81.7552 103.976 81.2432C105.744 80.7313 107.514 80.9863 109.284 82.0084C111.054 83.0304 112.173 84.4126 112.64 86.1549C113.106 87.8954 112.828 89.6507 111.806 91.421L97.6436 115.955L106.404 148.648L124.412 143.823C133.214 136.249 139.531 126.884 143.361 115.728C147.192 104.572 147.528 93.0992 144.368 81.3089C139.955 64.8398 130.512 52.4268 116.037 44.0696C101.562 35.7125 86.0897 33.7404 69.6206 38.1533C53.1516 42.5661 40.7385 52.01 32.3814 66.485C24.0243 80.96 22.0522 96.4319 26.465 112.901C29.6243 124.691 35.6516 134.459 44.547 142.206C53.4424 149.952 63.595 154.903 75.0048 157.061Z" fill="white"/>
</g>
</g>
<defs>
<clipPath id="clip0_3211_241790">
<rect width="240" height="240" fill="white"/>
</clipPath>
<clipPath id="clip1_3211_241790">
<rect width="279" height="279" fill="white" transform="translate(-78 26.2109) rotate(-15)"/>
</clipPath>
</defs>
</svg>
