<svg width="120" height="120" viewBox="0 0 120 120" fill="none" xmlns="http://www.w3.org/2000/svg">
<g clip-path="url(#clip0_3217_242143)">
<g clip-path="url(#clip1_3217_242143)">
<path d="M51.8584 92.104C50.0009 92.6018 48.2274 92.5524 46.538 91.9558C44.8484 91.3585 43.506 90.3412 42.5107 88.9039L41.1754 89.2617C39.2824 89.769 37.4688 89.522 35.7346 88.5207C34.0005 87.5195 32.8798 86.0724 32.3725 84.1794L28.3038 68.9948C22.8754 67.4159 18.1841 64.6059 14.23 60.565C10.2756 56.5234 7.57102 51.788 6.1163 46.3589C3.78229 37.6482 4.83287 29.4519 9.26805 21.77C13.7032 14.088 20.2761 9.08002 28.9868 6.74601C37.6974 4.412 45.8937 5.46258 53.5757 9.89776C61.2576 14.3329 66.2656 20.9059 68.5996 29.6165C70.0798 35.1405 70.1116 40.6173 68.695 46.0468C67.2784 51.4764 64.6143 56.232 60.7026 60.3136L64.7713 75.4982C65.2785 77.3912 65.0315 79.2048 64.0303 80.9389C63.0291 82.6731 61.582 83.7938 59.689 84.301L58.3537 84.6588C58.2104 86.4012 57.5565 87.9534 56.3919 89.3155C55.2271 90.6768 53.7159 91.6063 51.8584 92.104ZM39.3151 82.3191L57.8287 77.3584L56.6648 73.0147L38.1512 77.9754L39.3151 82.3191ZM37.0543 73.8816L55.5679 68.9209L54.3658 64.4348L35.8523 69.3955L37.0543 73.8816ZM33.0663 62.7009L40.4891 60.712L36.8783 47.2364L26.7665 41.3974C26.0742 40.9983 25.6225 40.4344 25.4115 39.7055C25.2005 38.9766 25.3056 38.2473 25.7269 37.5176C26.1482 36.788 26.7179 36.3269 27.4361 36.1345C28.1542 35.942 28.8782 36.0565 29.6078 36.4777L38.2977 41.4948L43.3148 32.805C43.7146 32.1125 44.279 31.6607 45.0079 31.4497C45.7368 31.2387 46.4661 31.3438 47.1957 31.7651C47.9254 32.1863 48.3864 32.7561 48.5789 33.4742C48.7711 34.1916 48.6566 34.9152 48.2353 35.6448L42.3977 45.7575L46.0085 59.2331L53.4313 57.2442C57.0594 54.1224 59.6629 50.2623 61.2419 45.664C62.8208 41.0656 62.9592 36.3366 61.657 31.4768C59.8381 24.6884 55.9455 19.5719 49.9791 16.1273C44.0127 12.6826 37.6354 11.8697 30.847 13.6886C24.0587 15.5075 18.9422 19.4002 15.4975 25.3666C12.0528 31.3329 11.24 37.7103 13.0589 44.4986C14.3611 49.3584 16.8454 53.3847 20.512 56.5775C24.1786 59.7703 28.3634 61.8115 33.0663 62.7009Z" fill="white"/>
</g>
</g>
<defs>
<clipPath id="clip0_3217_242143">
<rect width="120" height="120" fill="white"/>
</clipPath>
<clipPath id="clip1_3217_242143">
<rect width="115" height="115" fill="white" transform="translate(-30 8.76562) rotate(-15)"/>
</clipPath>
</defs>
</svg>
