<svg width="240" height="240" viewBox="0 0 240 240" fill="none" xmlns="http://www.w3.org/2000/svg">
<g clip-path="url(#clip0_3211_241775)">
<path d="M46.0484 226.71C39.1434 228.561 33.1412 227.555 28.0419 223.694C22.9443 219.832 19.9709 214.465 19.1217 207.594L9.39902 127.803C8.33693 118.523 10.3116 110.102 15.3231 102.542C20.3363 94.9804 27.3092 90.003 36.2418 87.6096L136.943 60.6266C145.876 58.2332 154.403 59.0572 162.525 63.0988C170.646 67.1408 176.566 73.4458 180.287 82.0138L211.762 155.976C214.462 162.352 214.571 168.486 212.087 174.379C209.601 180.273 204.906 184.145 198.001 185.995C195.094 186.774 192.292 187 189.598 186.674C186.903 186.347 184.233 185.42 181.589 183.892L150.584 165.994L77.1123 185.68L59.2106 216.683C57.6846 219.329 55.8362 221.467 53.6656 223.097C51.4949 224.727 48.9558 225.931 46.0484 226.71ZM45.62 208.837L66.842 172.079L152.677 149.079L189.435 170.301C189.865 170.55 191.292 170.712 193.717 170.789C195.582 170.29 196.918 169.341 197.724 167.944C198.531 166.547 198.515 164.961 197.676 163.187L165.47 87.87C163.471 83.1362 160.154 79.6188 155.518 77.3178C150.882 75.0167 146.053 74.5389 141.032 75.8845L40.3301 102.867C35.3086 104.213 31.3657 107.041 28.5015 111.352C25.6372 115.662 24.523 120.367 25.1589 125.466L34.926 206.796C35.0866 208.752 35.8655 210.133 37.2628 210.94C38.66 211.746 40.291 211.9 42.1559 211.4C42.6255 211.274 43.7802 210.42 45.62 208.837ZM157.631 135.8C160.188 135.115 162.12 133.641 163.429 131.377C164.735 129.112 165.046 126.701 164.361 124.144C163.676 121.588 162.201 119.655 159.937 118.347C157.672 117.04 155.261 116.73 152.705 117.415C150.148 118.1 148.216 119.574 146.907 121.838C145.601 124.103 145.29 126.514 145.975 129.071C146.66 131.627 148.135 133.56 150.399 134.868C152.664 136.175 155.075 136.485 157.631 135.8ZM129.111 110.736C131.667 110.051 133.6 108.576 134.908 106.312C136.215 104.047 136.526 101.636 135.84 99.0798C135.155 96.5233 133.681 94.5908 131.417 93.2822C129.152 91.9759 126.741 91.6652 124.184 92.3502C121.628 93.0352 119.695 94.5097 118.387 96.7737C117.08 99.0389 116.77 101.45 117.455 104.006C118.14 106.563 119.614 108.495 121.878 109.804C124.143 111.11 126.554 111.421 129.111 110.736ZM60.1789 142.207L63.3235 153.943C63.7927 155.694 64.7539 156.989 66.207 157.828C67.6584 158.668 69.2589 158.853 71.0085 158.384C72.7597 157.915 74.0557 156.953 74.8963 155.5C75.737 154.046 75.9227 152.444 75.4534 150.693L72.3088 138.957L84.0446 135.812C85.7959 135.343 87.091 134.382 87.93 132.929C88.7694 131.477 88.9547 129.877 88.4859 128.127C88.0166 126.376 87.0552 125.08 85.6016 124.239C84.1481 123.399 82.5457 123.213 80.7944 123.682L69.0586 126.827L65.914 115.091C65.4448 113.34 64.4836 112.045 63.0305 111.206C61.5791 110.366 59.9786 110.181 58.229 110.65C56.4777 111.119 55.1818 112.08 54.3411 113.534C53.5005 114.988 53.3148 116.59 53.784 118.341L56.9286 130.077L45.1928 133.222C43.4416 133.691 42.1465 134.652 41.3075 136.105C40.4681 137.557 40.2828 139.157 40.7516 140.907C41.2208 142.658 42.1823 143.954 43.6358 144.795C45.0894 145.635 46.6918 145.821 48.443 145.352L60.1789 142.207Z" fill="white"/>
</g>
<defs>
<clipPath id="clip0_3211_241775">
<rect width="240" height="240" fill="white"/>
</clipPath>
</defs>
</svg>
