<svg width="120" height="120" viewBox="0 0 120 120" fill="none" xmlns="http://www.w3.org/2000/svg">
<g clip-path="url(#clip0_3211_241778)">
<path d="M21.0242 89.238C17.5717 90.1631 14.5706 89.6603 12.0209 87.7297C9.47213 85.7988 7.98544 83.1155 7.56087 79.6797L2.69951 39.7843C2.16846 35.1442 3.15581 30.9339 5.66155 27.1536C8.16814 23.373 11.6546 20.8843 16.1209 19.6876L66.4717 6.19613C70.938 4.99939 75.2017 5.41141 79.2627 7.43219C83.3229 9.4532 86.2831 12.6057 88.1433 16.8897L103.881 53.8708C105.231 57.0586 105.285 60.1258 104.043 63.0724C102.801 66.0192 100.453 67.9551 97.0005 68.8802C95.5468 69.2697 94.1462 69.3829 92.7988 69.2197C91.4513 69.0566 90.1165 68.5929 88.7943 67.8288L73.2919 58.8796L36.5562 68.7229L27.6053 84.2244C26.8423 85.5472 25.9181 86.6161 24.8328 87.4312C23.7474 88.2462 22.4779 88.8485 21.0242 89.238ZM20.81 80.3011L31.421 61.9222L74.3387 50.4225L92.7176 61.0335C92.9325 61.1576 93.6461 61.2389 94.8584 61.2775C95.7909 61.0277 96.4588 60.5534 96.8621 59.8548C97.2654 59.1562 97.2574 58.3634 96.838 57.4764L80.7349 19.8178C79.7355 17.4509 78.0768 15.6922 75.7589 14.5417C73.441 13.3912 71.0266 13.1523 68.5159 13.825L18.165 27.3165C15.6543 27.9893 13.6828 29.4033 12.2507 31.5586C10.8186 33.714 10.2615 36.0664 10.5794 38.6159L15.463 79.2808C15.5433 80.2587 15.9328 80.9492 16.6314 81.3526C17.33 81.7559 18.1455 81.8327 19.0779 81.5828C19.3127 81.5199 19.8901 81.0927 20.81 80.3011ZM76.8156 43.783C78.0939 43.4405 79.0602 42.7033 79.7144 41.5713C80.3676 40.4387 80.523 39.2333 80.1804 37.955C79.8379 36.6767 79.1007 35.7105 77.9687 35.0562C76.8361 34.403 75.6307 34.2477 74.3524 34.5902C73.0742 34.9327 72.1079 35.6699 71.4536 36.8019C70.8004 37.9345 70.6451 39.1399 70.9876 40.4182C71.3301 41.6965 72.0674 42.6627 73.1993 43.317C74.3319 43.9702 75.5374 44.1255 76.8156 43.783ZM62.5554 31.2508C63.8337 30.9082 64.8 30.171 65.4542 29.039C66.1074 27.9064 66.2628 26.701 65.9202 25.4227C65.5777 24.1445 64.8405 23.1782 63.7085 22.5239C62.5759 21.8707 61.3705 21.7154 60.0922 22.0579C58.8139 22.4004 57.8477 23.1377 57.1934 24.2696C56.5402 25.4022 56.3849 26.6077 56.7274 27.8859C57.0699 29.1642 57.8072 30.1305 58.9391 30.7847C60.0717 31.4379 61.2772 31.5933 62.5554 31.2508ZM28.0894 46.9863L29.6617 52.8542C29.8964 53.7299 30.3769 54.3774 31.1035 54.7969C31.8292 55.2166 32.6295 55.3092 33.5042 55.0748C34.3799 54.8402 35.0278 54.3595 35.4482 53.6327C35.8685 52.9059 35.9613 52.1047 35.7267 51.2291L34.1544 45.3612L40.0223 43.7889C40.8979 43.5543 41.5455 43.0737 41.965 42.3471C42.3847 41.6214 42.4773 40.8212 42.2429 39.9464C42.0083 39.0708 41.5276 38.4228 40.8008 38.0025C40.074 37.5821 39.2728 37.4893 38.3972 37.7239L32.5293 39.2962L30.957 33.4283C30.7224 32.5527 30.2418 31.9051 29.5152 31.4857C28.7895 31.066 27.9893 30.9733 27.1145 31.2077C26.2389 31.4423 25.5909 31.923 25.1706 32.6498C24.7502 33.3766 24.6574 34.1778 24.892 35.0534L26.4643 40.9213L20.5964 42.4936C19.7208 42.7283 19.0732 43.2088 18.6538 43.9354C18.2341 44.6611 18.1414 45.4614 18.3758 46.3361C18.6104 47.2118 19.0911 47.8597 19.8179 48.2801C20.5447 48.7004 21.3459 48.7932 22.2215 48.5586L28.0894 46.9863Z" fill="white"/>
</g>
<defs>
<clipPath id="clip0_3211_241778">
<rect width="120" height="120" fill="white"/>
</clipPath>
</defs>
</svg>
