<svg width="240" height="240" viewBox="0 0 240 240" fill="none" xmlns="http://www.w3.org/2000/svg">
<g clip-path="url(#clip0_3217_242138)">
<g clip-path="url(#clip1_3217_242138)">
<g clip-path="url(#clip2_3217_242138)">
<path d="M68.4835 230.502C64.0106 231.7 59.783 231.067 55.8008 228.601C51.8185 226.135 49.19 222.523 47.9153 217.766L4.04572 54.0426C2.77094 49.285 3.24144 44.8429 5.45723 40.7163C7.67303 36.5897 11.0174 33.9272 15.4903 32.7287L98.5836 10.4639C103.057 9.26537 107.284 9.89903 111.266 12.3649C115.249 14.8307 117.877 18.4424 119.152 23.2L163.021 186.923C164.296 191.681 163.826 196.123 161.61 200.25C159.394 204.376 156.05 207.039 151.577 208.237L68.4835 230.502ZM53.8206 186.679L61.1967 214.207C61.391 214.932 61.853 215.52 62.5827 215.971C63.3113 216.423 64.0165 216.558 64.6983 216.375L147.792 194.111C148.473 193.928 149.017 193.458 149.421 192.702C149.828 191.947 149.934 191.207 149.74 190.482L142.364 162.954L53.8206 186.679ZM104.401 198.361C106.569 197.78 108.199 196.473 109.291 194.439C110.382 192.407 110.618 190.237 110 187.93C109.382 185.624 108.093 183.864 106.132 182.65C104.169 181.435 102.104 181.118 99.9362 181.698C97.7684 182.279 96.1384 183.587 95.0464 185.621C93.9553 187.652 93.7188 189.821 94.3366 192.127C94.9549 194.434 96.2444 196.195 98.2051 197.409C100.168 198.625 102.233 198.942 104.401 198.361ZM50.0354 172.552L138.579 148.827L112.033 49.7593L23.4902 73.4844L50.0354 172.552ZM19.705 59.3577L108.248 35.6326L105.87 26.7587C105.676 26.0336 105.214 25.4457 104.484 24.9952C103.756 24.5427 103.051 24.4079 102.369 24.5905L19.2755 46.8553C18.5937 47.038 18.0505 47.5074 17.6457 48.2636C17.2391 49.0186 17.1329 49.7586 17.3272 50.4838L19.705 59.3577Z" fill="white"/>
</g>
</g>
</g>
<defs>
<clipPath id="clip0_3217_242138">
<rect width="240" height="240" fill="white"/>
</clipPath>
<clipPath id="clip1_3217_242138">
<rect width="220" height="234" fill="white" transform="translate(-53 35.9395) rotate(-15)"/>
</clipPath>
<clipPath id="clip2_3217_242138">
<rect width="220" height="234" fill="white" transform="translate(-53 35.9395) rotate(-15)"/>
</clipPath>
</defs>
</svg>
