<svg width="120" height="120" viewBox="0 0 120 120" fill="none" xmlns="http://www.w3.org/2000/svg">
<g clip-path="url(#clip0_3211_241824)">
<g clip-path="url(#clip1_3211_241824)">
<path d="M6.5415 80.4173C5.65609 80.4173 4.91407 80.1177 4.31546 79.5184C3.71616 78.9191 3.4165 78.1767 3.4165 77.2913C3.4165 76.4052 3.71616 75.6632 4.31546 75.0652C4.91407 74.4666 5.65609 74.1673 6.5415 74.1673H79.4582C80.3436 74.1673 81.0856 74.467 81.6842 75.0663C82.2835 75.6656 82.5832 76.4079 82.5832 77.2934C82.5832 78.1795 82.2835 78.9215 81.6842 79.5194C81.0856 80.118 80.3436 80.4173 79.4582 80.4173H6.5415ZM12.7967 68.3975C11.3509 68.3975 10.1207 67.8913 9.10609 66.8788C8.09081 65.8663 7.58317 64.6364 7.58317 63.1892L7.58317 48.1257C7.58317 46.6791 8.08907 45.4493 9.10088 44.4361C10.1127 43.4236 11.3415 42.9173 12.7873 42.9173C14.2325 42.9173 15.4623 43.4236 16.4769 44.4361C17.4922 45.4493 17.9998 46.6791 17.9998 48.1257V63.1892C17.9998 64.6364 17.4939 65.8663 16.4821 66.8788C15.4703 67.8913 14.2419 68.3975 12.7967 68.3975ZM32.9082 68.3975C31.463 68.3975 30.2328 67.8913 29.2175 66.8788C28.203 65.8663 27.6957 64.6364 27.6957 63.1892V27.2923C27.6957 25.8458 28.2016 24.6159 29.2134 23.6027C30.2252 22.5902 31.4537 22.084 32.8988 22.084C34.3446 22.084 35.5748 22.5902 36.5894 23.6027C37.6047 24.6159 38.1123 25.8458 38.1123 27.2923V63.1892C38.1123 64.6364 37.6064 65.8663 36.5946 66.8788C35.5828 67.8913 34.354 68.3975 32.9082 68.3975ZM53.0603 68.3975C51.6151 68.3975 50.3849 67.8913 49.3696 66.8788C48.355 65.8663 47.8478 64.6364 47.8478 63.1892V39.7923C47.8478 38.3458 48.3537 37.1159 49.3655 36.1027C50.3773 35.0902 51.6057 34.584 53.0509 34.584C54.4967 34.584 55.7269 35.0902 56.7415 36.1027C57.7568 37.1159 58.2644 38.3458 58.2644 39.7923V63.1892C58.2644 64.6364 57.7585 65.8663 56.7467 66.8788C55.7349 67.8913 54.5061 68.3975 53.0603 68.3975ZM73.2123 68.3975C71.7672 68.3975 70.5373 67.8913 69.5228 66.8788C68.5075 65.8663 67.9998 64.6364 67.9998 63.1892V14.7923C67.9998 13.3458 68.5057 12.1159 69.5175 11.1027C70.5294 10.0902 71.7578 9.58398 73.203 9.58398C74.6488 9.58398 75.879 10.0902 76.8936 11.1027C77.9089 12.1159 78.4165 13.3458 78.4165 14.7923V63.1892C78.4165 64.6364 77.9106 65.8663 76.8988 66.8788C75.887 67.8913 74.6582 68.3975 73.2123 68.3975Z" fill="white"/>
</g>
</g>
<defs>
<clipPath id="clip0_3211_241824">
<rect width="120" height="120" fill="white"/>
</clipPath>
<clipPath id="clip1_3211_241824">
<rect width="100" height="100" fill="white" transform="translate(-7 -5)"/>
</clipPath>
</defs>
</svg>
