<svg width="240" height="240" viewBox="0 0 240 240" fill="none" xmlns="http://www.w3.org/2000/svg">
<g clip-path="url(#clip0_3211_241815)">
<g clip-path="url(#clip1_3211_241815)">
<path d="M13.9287 179.678C12.1579 179.678 10.6738 179.079 9.47663 177.88C8.27802 176.682 7.67871 175.197 7.67871 173.426C7.67871 171.654 8.27802 170.17 9.47663 168.974C10.6738 167.777 12.1579 167.178 13.9287 167.178H159.762C161.533 167.178 163.017 167.778 164.214 168.976C165.413 170.175 166.012 171.66 166.012 173.43C166.012 175.203 165.413 176.687 164.214 177.883C163.017 179.08 161.533 179.678 159.762 179.678H13.9287ZM26.4391 155.639C23.5475 155.639 21.087 154.626 19.0579 152.601C17.0273 150.576 16.012 148.117 16.012 145.222L16.012 115.095C16.012 112.202 17.0239 109.742 19.0475 107.716C21.0711 105.691 23.5287 104.678 26.4204 104.678C29.3107 104.678 31.7704 105.691 33.7995 107.716C35.8301 109.742 36.8454 112.202 36.8454 115.095V145.222C36.8454 148.117 35.8336 150.576 33.81 152.601C31.7864 154.626 29.3294 155.639 26.4391 155.639ZM66.662 155.639C63.7718 155.639 61.3114 154.626 59.2808 152.601C57.2516 150.576 56.237 148.117 56.237 145.222V73.4284C56.237 70.5353 57.2489 68.0756 59.2725 66.0492C61.2961 64.0242 63.753 63.0117 66.6433 63.0117C69.535 63.0117 71.9954 64.0242 74.0245 66.0492C76.0551 68.0756 77.0704 70.5353 77.0704 73.4284V145.222C77.0704 148.117 76.0586 150.576 74.035 152.601C72.0114 154.626 69.5537 155.639 66.662 155.639ZM106.966 155.639C104.076 155.639 101.616 154.626 99.585 152.601C97.5558 150.576 96.5412 148.117 96.5412 145.222V98.4284C96.5412 95.5353 97.553 93.0756 99.5766 91.0492C101.6 89.0242 104.057 88.0117 106.947 88.0117C109.839 88.0117 112.3 89.0242 114.329 91.0492C116.359 93.0756 117.375 95.5353 117.375 98.4284V145.222C117.375 148.117 116.363 150.576 114.339 152.601C112.316 154.626 109.858 155.639 106.966 155.639ZM147.27 155.639C144.38 155.639 141.92 154.626 139.891 152.601C137.861 150.576 136.845 148.117 136.845 145.222V48.4284C136.845 45.5353 137.857 43.0756 139.881 41.0492C141.904 39.0242 144.361 38.0117 147.252 38.0117C150.143 38.0117 152.604 39.0242 154.633 41.0492C156.663 43.0756 157.679 45.5353 157.679 48.4284V145.222C157.679 148.117 156.667 150.576 154.643 152.601C152.62 154.626 150.162 155.639 147.27 155.639Z" fill="white"/>
</g>
</g>
<defs>
<clipPath id="clip0_3211_241815">
<rect width="240" height="240" fill="white"/>
</clipPath>
<clipPath id="clip1_3211_241815">
<rect width="200" height="200" fill="white" transform="translate(-13.1543 8.8457)"/>
</clipPath>
</defs>
</svg>
